<svg width="38" height="39" viewBox="0 0 38 39" fill="none" xmlns="http://www.w3.org/2000/svg">
<g clip-path="url(#clip0_28_270)">
<path d="M16.625 6.73962C16.625 6.42468 16.7501 6.12263 16.9728 5.89994C17.1955 5.67724 17.4976 5.55212 17.8125 5.55212H34.4375C34.7524 5.55212 35.0545 5.67724 35.2772 5.89994C35.4999 6.12263 35.625 6.42468 35.625 6.73962V9.11462C35.625 9.42957 35.4999 9.73161 35.2772 9.95431C35.0545 10.177 34.7524 10.3021 34.4375 10.3021H17.8125C17.4976 10.3021 17.1955 10.177 16.9728 9.95431C16.7501 9.73161 16.625 9.42957 16.625 9.11462V6.73962ZM1.06171e-07 29.3021C1.06171e-07 27.4125 0.750668 25.6002 2.08686 24.264C3.42306 22.9278 5.23533 22.1771 7.125 22.1771C9.01467 22.1771 10.8269 22.9278 12.1631 24.264C13.4993 25.6002 14.25 27.4125 14.25 29.3021C14.25 31.1918 13.4993 33.0041 12.1631 34.3403C10.8269 35.6765 9.01467 36.4271 7.125 36.4271C5.23533 36.4271 3.42306 35.6765 2.08686 34.3403C0.750668 33.0041 1.06171e-07 31.1918 1.06171e-07 29.3021ZM16.625 25.7396C16.625 25.4247 16.7501 25.1226 16.9728 24.8999C17.1955 24.6772 17.4976 24.5521 17.8125 24.5521H34.4375C34.7524 24.5521 35.0545 24.6772 35.2772 24.8999C35.4999 25.1226 35.625 25.4247 35.625 25.7396V28.1146C35.625 28.4296 35.4999 28.7316 35.2772 28.9543C35.0545 29.177 34.7524 29.3021 34.4375 29.3021H17.8125C17.4976 29.3021 17.1955 29.177 16.9728 28.9543C16.7501 28.7316 16.625 28.4296 16.625 28.1146V25.7396ZM16.625 13.8646C16.625 13.5497 16.7501 13.2476 16.9728 13.0249C17.1955 12.8022 17.4976 12.6771 17.8125 12.6771H29.6875C30.0024 12.6771 30.3045 12.8022 30.5272 13.0249C30.7499 13.2476 30.875 13.5497 30.875 13.8646C30.875 14.1796 30.7499 14.4816 30.5272 14.7043C30.3045 14.927 30.0024 15.0521 29.6875 15.0521H17.8125C17.4976 15.0521 17.1955 14.927 16.9728 14.7043C16.7501 14.4816 16.625 14.1796 16.625 13.8646ZM16.625 32.8646C16.625 32.5497 16.7501 32.2476 16.9728 32.0249C17.1955 31.8022 17.4976 31.6771 17.8125 31.6771H29.6875C30.0024 31.6771 30.3045 31.8022 30.5272 32.0249C30.7499 32.2476 30.875 32.5497 30.875 32.8646C30.875 33.1796 30.7499 33.4816 30.5272 33.7043C30.3045 33.927 30.0024 34.0521 29.6875 34.0521H17.8125C17.4976 34.0521 17.1955 33.927 16.9728 33.7043C16.7501 33.4816 16.625 33.1796 16.625 32.8646ZM7.125 3.17712C6.18933 3.17712 5.26283 3.36142 4.39838 3.71948C3.53394 4.07755 2.74848 4.60237 2.08686 5.26399C1.42525 5.92561 0.900423 6.71106 0.542358 7.5755C0.184294 8.43995 0 9.36646 0 10.3021C0 11.2378 0.184294 12.1643 0.542358 13.0287C0.900423 13.8932 1.42525 14.6786 2.08686 15.3403C2.74848 16.0019 3.53394 16.5267 4.39838 16.8848C5.26283 17.2428 6.18933 17.4271 7.125 17.4271C9.01467 17.4271 10.8269 16.6765 12.1631 15.3403C13.4993 14.0041 14.25 12.1918 14.25 10.3021C14.25 8.41246 13.4993 6.60018 12.1631 5.26399C10.8269 3.92779 9.01467 3.17712 7.125 3.17712ZM7.125 13.8646C6.18017 13.8646 5.27403 13.4893 4.60593 12.8212C3.93783 12.1531 3.5625 11.247 3.5625 10.3021C3.5625 9.35729 3.93783 8.45115 4.60593 7.78306C5.27403 7.11496 6.18017 6.73962 7.125 6.73962C8.06983 6.73962 8.97597 7.11496 9.64407 7.78306C10.3122 8.45115 10.6875 9.35729 10.6875 10.3021C10.6875 11.247 10.3122 12.1531 9.64407 12.8212C8.97597 13.4893 8.06983 13.8646 7.125 13.8646Z" fill="black"/>
</g>
<defs>
<clipPath id="clip0_28_270">
<rect width="38" height="38" fill="white" transform="translate(0 0.802124)"/>
</clipPath>
</defs>
</svg>
