<svg width="18" height="19" viewBox="0 0 18 19" fill="none" xmlns="http://www.w3.org/2000/svg">
<path d="M11.8594 9.79858C11.8594 10.3672 11.6908 10.9231 11.3749 11.3958C11.0589 11.8686 10.6099 12.2371 10.0846 12.4547C9.55925 12.6723 8.98119 12.7293 8.42349 12.6183C7.8658 12.5074 7.35352 12.2336 6.95144 11.8315C6.54937 11.4294 6.27555 10.9172 6.16462 10.3595C6.05368 9.80177 6.11062 9.22371 6.32822 8.69837C6.54582 8.17303 6.91432 7.72402 7.38711 7.40811C7.8599 7.0922 8.41575 6.92358 8.98438 6.92358C9.74614 6.92595 10.476 7.22962 11.0147 7.76827C11.5533 8.30692 11.857 9.03682 11.8594 9.79858ZM17.9688 5.84546V13.7517C17.9688 15.0861 17.4387 16.3658 16.4951 17.3093C15.5516 18.2529 14.2719 18.783 12.9375 18.783H5.03125C3.69688 18.783 2.41716 18.2529 1.47362 17.3093C0.530077 16.3658 0 15.0861 0 13.7517V5.84546C0 4.51109 0.530077 3.23137 1.47362 2.28783C2.41716 1.34429 3.69688 0.814209 5.03125 0.814209H12.9375C14.2719 0.814209 15.5516 1.34429 16.4951 2.28783C17.4387 3.23137 17.9688 4.51109 17.9688 5.84546ZM13.2969 9.79858C13.2969 8.94565 13.044 8.11187 12.5701 7.40269C12.0962 6.6935 11.4227 6.14076 10.6347 5.81435C9.84669 5.48795 8.97959 5.40255 8.14305 5.56895C7.30651 5.73535 6.53809 6.14607 5.93498 6.74919C5.33186 7.3523 4.92114 8.12071 4.75474 8.95726C4.58834 9.7938 4.67374 10.6609 5.00014 11.4489C5.32655 12.2369 5.87929 12.9104 6.58848 13.3843C7.29767 13.8582 8.13144 14.1111 8.98438 14.1111C10.1281 14.1111 11.225 13.6567 12.0338 12.848C12.8425 12.0392 13.2969 10.9423 13.2969 9.79858ZM14.7344 5.12671C14.7344 4.91348 14.6711 4.70503 14.5527 4.52774C14.4342 4.35044 14.2658 4.21225 14.0688 4.13065C13.8718 4.04905 13.6551 4.0277 13.4459 4.0693C13.2368 4.1109 13.0447 4.21358 12.8939 4.36436C12.7431 4.51514 12.6404 4.70724 12.5988 4.91638C12.5572 5.12551 12.5786 5.34229 12.6602 5.53929C12.7418 5.73629 12.88 5.90467 13.0573 6.02314C13.2346 6.1416 13.443 6.20483 13.6562 6.20483C13.9422 6.20483 14.2164 6.09125 14.4186 5.88906C14.6208 5.68687 14.7344 5.41265 14.7344 5.12671Z" fill="white"/>
</svg>
