<svg width="18" height="19" viewBox="0 0 18 19" fill="none" xmlns="http://www.w3.org/2000/svg">
<path d="M11.8872 9.89258C11.8872 10.4612 11.7186 11.0171 11.4027 11.4898C11.0868 11.9626 10.6378 12.3311 10.1124 12.5487C9.58708 12.7663 9.00902 12.8233 8.45132 12.7123C7.89363 12.6014 7.38135 12.3276 6.97927 11.9255C6.5772 11.5234 6.30338 11.0112 6.19245 10.4535C6.08152 9.89577 6.13845 9.3177 6.35605 8.79236C6.57366 8.26703 6.94215 7.81801 7.41494 7.5021C7.88773 7.18619 8.44359 7.01758 9.01221 7.01758C9.77398 7.01995 10.5039 7.32361 11.0425 7.86226C11.5812 8.40092 11.8848 9.13081 11.8872 9.89258ZM17.9966 5.93945V13.8457C17.9966 15.1801 17.4665 16.4598 16.523 17.4033C15.5794 18.3469 14.2997 18.877 12.9653 18.877H5.05908C3.72471 18.877 2.44499 18.3469 1.50145 17.4033C0.557909 16.4598 0.027832 15.1801 0.027832 13.8457V5.93945C0.027832 4.60508 0.557909 3.32536 1.50145 2.38182C2.44499 1.43828 3.72471 0.908203 5.05908 0.908203H12.9653C14.2997 0.908203 15.5794 1.43828 16.523 2.38182C17.4665 3.32536 17.9966 4.60508 17.9966 5.93945ZM13.3247 9.89258C13.3247 9.03965 13.0718 8.20587 12.5979 7.49668C12.1241 6.78749 11.4505 6.23475 10.6625 5.90835C9.87452 5.58194 9.00742 5.49654 8.17088 5.66294C7.33434 5.82934 6.56592 6.24007 5.96281 6.84318C5.3597 7.44629 4.94897 8.21471 4.78257 9.05125C4.61617 9.88779 4.70157 10.7549 5.02798 11.5429C5.35438 12.3309 5.90712 13.0044 6.61631 13.4783C7.3255 13.9522 8.15928 14.2051 9.01221 14.2051C10.156 14.2051 11.2529 13.7507 12.0616 12.942C12.8704 12.1332 13.3247 11.0363 13.3247 9.89258ZM14.7622 5.2207C14.7622 5.00747 14.699 4.79903 14.5805 4.62173C14.462 4.44443 14.2937 4.30625 14.0967 4.22465C13.8997 4.14304 13.6829 4.12169 13.4738 4.16329C13.2646 4.20489 13.0725 4.30757 12.9217 4.45835C12.771 4.60913 12.6683 4.80124 12.6267 5.01037C12.5851 5.21951 12.6064 5.43628 12.688 5.63328C12.7696 5.83029 12.9078 5.99867 13.0851 6.11713C13.2624 6.2356 13.4708 6.29883 13.6841 6.29883C13.97 6.29883 14.2442 6.18524 14.4464 5.98305C14.6486 5.78087 14.7622 5.50664 14.7622 5.2207Z" fill="#DD131A"/>
</svg>
