<svg width="168" height="35" viewBox="0 0 168 35" fill="none" xmlns="http://www.w3.org/2000/svg">
<path d="M0.24 25.7942V0.594188H3.66V22.7342H15.216V25.7942H0.24ZM26.1507 26.2262C24.3747 26.2262 22.7787 25.8182 21.3627 25.0022C19.9467 24.1622 18.8307 23.0102 18.0147 21.5462C17.2227 20.0582 16.8267 18.3542 16.8267 16.4342C16.8267 14.4182 17.2347 12.6782 18.0507 11.2142C18.8667 9.75019 19.9827 8.62219 21.3987 7.83019C22.8147 7.03819 24.3987 6.64219 26.1507 6.64219C27.9027 6.64219 29.4747 7.03819 30.8667 7.83019C32.2827 8.62219 33.3987 9.75019 34.2147 11.2142C35.0547 12.6542 35.4747 14.3702 35.4747 16.3622C35.4747 18.3542 35.0667 20.0942 34.2507 21.5822C33.4347 23.0462 32.3187 24.1862 30.9027 25.0022C29.5107 25.8182 27.9267 26.2262 26.1507 26.2262ZM26.1507 23.3462C28.0467 23.3462 29.5227 22.7102 30.5787 21.4382C31.6347 20.1422 32.1627 18.4742 32.1627 16.4342C32.1627 15.1862 31.8987 14.0462 31.3707 13.0142C30.8427 11.9582 30.1227 11.1182 29.2107 10.4942C28.3227 9.84619 27.3027 9.52219 26.1507 9.52219C24.2547 9.52219 22.7787 10.1462 21.7227 11.3942C20.6667 12.6422 20.1387 14.2982 20.1387 16.3622C20.1387 17.6102 20.4027 18.7742 20.9307 19.8542C21.4587 20.9102 22.1667 21.7622 23.0547 22.4102C23.9667 23.0342 24.9987 23.3462 26.1507 23.3462ZM46.6583 34.1462C45.5543 34.1462 44.4743 34.0142 43.4183 33.7502C42.3863 33.4862 41.4623 33.0902 40.6463 32.5622L41.8343 29.7542C42.4103 30.2102 43.0823 30.5822 43.8503 30.8702C44.6183 31.1822 45.5543 31.3382 46.6583 31.3382C48.3623 31.3382 49.6943 30.8822 50.6543 29.9702C51.6383 29.0822 52.1303 27.6542 52.1303 25.6862V23.3822C51.6503 23.9582 50.9543 24.5102 50.0423 25.0382C49.1543 25.5422 48.0863 25.7942 46.8383 25.7942C45.4223 25.7942 44.0783 25.4342 42.8063 24.7142C41.5343 23.9702 40.5023 22.8902 39.7103 21.4742C38.9183 20.0582 38.5223 18.3542 38.5223 16.3622C38.5223 14.4902 38.9063 12.8222 39.6743 11.3582C40.4663 9.89419 41.5223 8.74219 42.8423 7.90219C44.1623 7.06219 45.6143 6.64219 47.1983 6.64219C48.2543 6.64219 49.2143 6.82219 50.0783 7.18219C50.9423 7.54219 51.6863 7.98619 52.3103 8.51419V7.07419H55.2623V25.3622C55.2623 27.4262 54.9023 29.1062 54.1823 30.4022C53.4623 31.6982 52.4543 32.6462 51.1583 33.2462C49.8863 33.8462 48.3863 34.1462 46.6583 34.1462ZM47.5583 22.9142C48.5183 22.9142 49.3823 22.6982 50.1503 22.2662C50.9183 21.8342 51.5423 21.3302 52.0223 20.7542V10.9622C51.4943 10.5782 50.8583 10.2302 50.1143 9.91819C49.3703 9.60619 48.5063 9.45019 47.5223 9.45019C46.5383 9.45019 45.6143 9.71419 44.7503 10.2422C43.8863 10.7702 43.1783 11.5382 42.6263 12.5462C42.0983 13.5302 41.8343 14.7422 41.8343 16.1822C41.8343 17.5502 42.0983 18.7382 42.6263 19.7462C43.1783 20.7542 43.8863 21.5342 44.7503 22.0862C45.6143 22.6382 46.5503 22.9142 47.5583 22.9142ZM68.7249 26.2262C66.9489 26.2262 65.3529 25.8182 63.9369 25.0022C62.5209 24.1622 61.4049 23.0102 60.5889 21.5462C59.7969 20.0582 59.4009 18.3542 59.4009 16.4342C59.4009 14.4182 59.8089 12.6782 60.6249 11.2142C61.4409 9.75019 62.5569 8.62219 63.9729 7.83019C65.3889 7.03819 66.9729 6.64219 68.7249 6.64219C70.4769 6.64219 72.0489 7.03819 73.4409 7.83019C74.8569 8.62219 75.9729 9.75019 76.7889 11.2142C77.6289 12.6542 78.0489 14.3702 78.0489 16.3622C78.0489 18.3542 77.6409 20.0942 76.8249 21.5822C76.0089 23.0462 74.8929 24.1862 73.4769 25.0022C72.0849 25.8182 70.5009 26.2262 68.7249 26.2262ZM68.7249 23.3462C70.6209 23.3462 72.0969 22.7102 73.1529 21.4382C74.2089 20.1422 74.7369 18.4742 74.7369 16.4342C74.7369 15.1862 74.4729 14.0462 73.9449 13.0142C73.4169 11.9582 72.6969 11.1182 71.7849 10.4942C70.8969 9.84619 69.8769 9.52219 68.7249 9.52219C66.8289 9.52219 65.3529 10.1462 64.2969 11.3942C63.2409 12.6422 62.7129 14.2982 62.7129 16.3622C62.7129 17.6102 62.9769 18.7742 63.5049 19.8542C64.0329 20.9102 64.7409 21.7622 65.6289 22.4102C66.5409 23.0342 67.5729 23.3462 68.7249 23.3462ZM93.5095 25.7942V0.594188H96.9295V11.3582H109.35V0.594188H112.77V25.7942H109.35V14.3102H96.9295V25.7942H93.5095ZM126.372 26.2262C123.684 26.2262 121.548 25.3742 119.964 23.6702C118.404 21.9422 117.624 19.5302 117.624 16.4342C117.624 14.5622 117.972 12.8942 118.668 11.4302C119.388 9.94219 120.384 8.77819 121.656 7.93819C122.928 7.07419 124.404 6.64219 126.084 6.64219C127.884 6.64219 129.372 7.03819 130.548 7.83019C131.748 8.59819 132.648 9.64219 133.248 10.9622C133.848 12.2822 134.148 13.7342 134.148 15.3182C134.148 16.1582 134.112 16.9742 134.04 17.7662H120.936C121.152 19.5182 121.764 20.8862 122.772 21.8702C123.78 22.8542 125.112 23.3462 126.768 23.3462C127.848 23.3462 128.82 23.2382 129.684 23.0222C130.548 22.7822 131.376 22.4822 132.168 22.1222L132.924 24.8942C132.06 25.2782 131.088 25.5902 130.008 25.8302C128.928 26.0942 127.716 26.2262 126.372 26.2262ZM120.9 15.1382H131.16C131.16 13.3142 130.704 11.9102 129.792 10.9262C128.88 9.94219 127.62 9.45019 126.012 9.45019C124.62 9.45019 123.468 9.94219 122.556 10.9262C121.644 11.8862 121.092 13.2902 120.9 15.1382ZM138.466 25.7942V7.07419H141.598V11.1422C141.91 10.3502 142.33 9.61819 142.858 8.94619C143.386 8.25019 144.046 7.69819 144.838 7.29019C145.63 6.85819 146.554 6.64219 147.61 6.64219C147.97 6.64219 148.33 6.66619 148.69 6.71419C149.05 6.73819 149.35 6.78619 149.59 6.85819L148.618 10.2062C148.162 10.0142 147.622 9.91819 146.998 9.91819C146.11 9.91819 145.258 10.1702 144.442 10.6742C143.65 11.1782 142.99 11.9582 142.462 13.0142C141.958 14.0702 141.706 15.4142 141.706 17.0462V25.7942H138.466ZM159.243 26.2262C156.555 26.2262 154.419 25.3742 152.835 23.6702C151.275 21.9422 150.495 19.5302 150.495 16.4342C150.495 14.5622 150.843 12.8942 151.539 11.4302C152.259 9.94219 153.255 8.77819 154.527 7.93819C155.799 7.07419 157.275 6.64219 158.955 6.64219C160.755 6.64219 162.243 7.03819 163.419 7.83019C164.619 8.59819 165.519 9.64219 166.119 10.9622C166.719 12.2822 167.019 13.7342 167.019 15.3182C167.019 16.1582 166.983 16.9742 166.911 17.7662H153.807C154.023 19.5182 154.635 20.8862 155.643 21.8702C156.651 22.8542 157.983 23.3462 159.639 23.3462C160.719 23.3462 161.691 23.2382 162.555 23.0222C163.419 22.7822 164.247 22.4822 165.039 22.1222L165.795 24.8942C164.931 25.2782 163.959 25.5902 162.879 25.8302C161.799 26.0942 160.587 26.2262 159.243 26.2262ZM153.771 15.1382H164.031C164.031 13.3142 163.575 11.9102 162.663 10.9262C161.751 9.94219 160.491 9.45019 158.883 9.45019C157.491 9.45019 156.339 9.94219 155.427 10.9262C154.515 11.8862 153.963 13.2902 153.771 15.1382Z" fill="white"/>
</svg>
