<svg width="73" height="73" viewBox="0 0 73 73" fill="none" xmlns="http://www.w3.org/2000/svg">
<path d="M31.7731 44.1743L43.948 36.3476L31.7731 28.5209V44.1743ZM36.1213 53.7404C33.7153 53.7404 31.4542 53.2835 29.3381 52.3698C27.222 51.4573 25.3812 50.2183 23.8159 48.653C22.2506 47.0876 21.0116 45.2469 20.0991 43.1308C19.1854 41.0147 18.7285 38.7536 18.7285 36.3476C18.7285 33.9416 19.1854 31.6805 20.0991 29.5644C21.0116 27.4483 22.2506 25.6076 23.8159 24.0422C25.3812 22.4769 27.222 21.2373 29.3381 20.3236C31.4542 19.4111 33.7153 18.9548 36.1213 18.9548C38.5273 18.9548 40.7883 19.4111 42.9045 20.3236C45.0206 21.2373 46.8613 22.4769 48.4267 24.0422C49.992 25.6076 51.231 27.4483 52.1435 29.5644C53.0572 31.6805 53.5141 33.9416 53.5141 36.3476C53.5141 38.7536 53.0572 41.0147 52.1435 43.1308C51.231 45.2469 49.992 47.0876 48.4267 48.653C46.8613 50.2183 45.0206 51.4573 42.9045 52.3698C40.7883 53.2835 38.5273 53.7404 36.1213 53.7404Z" fill="#DD131A"/>
<circle opacity="0.5" cx="36.1213" cy="36.3477" r="23.8913" stroke="#FF0000" stroke-width="0.5"/>
<circle opacity="0.3" cx="36.1213" cy="36.3477" r="29.1401" stroke="#FF0000" stroke-width="0.5"/>
<circle opacity="0.2" cx="36.1214" cy="36.3477" r="35.7935" stroke="#FF0000" stroke-width="0.5"/>
</svg>
