<svg width="68" height="69" viewBox="0 0 68 69" fill="none" xmlns="http://www.w3.org/2000/svg">
<path d="M37.5712 32.6883H39.6C39.8121 32.6883 40.0156 32.7726 40.1656 32.9226C40.3157 33.0727 40.4 33.2762 40.4 33.4883C40.4 33.7005 40.3157 33.904 40.1656 34.054C40.0156 34.2041 39.8121 34.2883 39.6 34.2883H28.4C28.1878 34.2883 27.9843 34.2041 27.8343 34.054C27.6842 33.904 27.6 33.7005 27.6 33.4883C27.6 33.2762 27.6842 33.0727 27.8343 32.9226C27.9843 32.7726 28.1878 32.6883 28.4 32.6883H29.6112C29.3847 32.4371 29.2437 32.1207 29.2083 31.7843C29.173 31.448 29.2451 31.1091 29.4144 30.8163L33.4144 23.8883C33.6265 23.5209 33.976 23.2527 34.3859 23.1429C34.7958 23.0331 35.2325 23.0906 35.6 23.3027L39.7568 25.7027C40.1242 25.9149 40.3924 26.2644 40.5022 26.6743C40.612 27.0841 40.5545 27.5208 40.3424 27.8883L37.5712 32.6883ZM38.9568 27.0883L34.8 24.6883L30.8 31.6163L32.656 32.6883H35.7248L38.9568 27.0883ZM40.336 31.0883L41.2592 29.4883C41.4975 29.4973 41.7308 29.5594 41.942 29.6701C42.1532 29.7809 42.337 29.9374 42.48 30.1283L46.4799 35.4611C46.6877 35.7381 46.8 36.0749 46.8 36.4211V43.8883C46.8 44.3127 46.6314 44.7197 46.3313 45.0197C46.0313 45.3198 45.6243 45.4883 45.2 45.4883H22.8C22.3756 45.4883 21.9686 45.3198 21.6686 45.0197C21.3685 44.7197 21.2 44.3127 21.2 43.8883V36.4211C21.2 36.0749 21.3122 35.7381 21.52 35.4611L25.52 30.1283C25.669 29.9296 25.8622 29.7683 26.0844 29.6573C26.3066 29.5462 26.5516 29.4883 26.8 29.4883H28.3408L27.5744 30.8163C27.5244 30.9029 27.4826 30.994 27.4496 31.0883H26.8L23.2 35.8883H44.8L41.2 31.0883H40.336ZM22.8 43.8883H45.2V37.4883H22.8V43.8883Z" fill="#010766"/>
<circle cx="33.9998" cy="34.2884" r="33.7498" stroke="#010766" stroke-width="0.5"/>
</svg>
