<svg width="68" height="69" viewBox="0 0 68 69" fill="none" xmlns="http://www.w3.org/2000/svg">
<path d="M34 22.101C28.8306 22.101 24.625 26.3066 24.625 31.476C24.625 36.6453 28.8306 40.851 34 40.851C39.1694 40.851 43.375 36.6453 43.375 31.476C43.375 26.3066 39.1694 22.101 34 22.101ZM34 23.976C38.1353 23.976 41.5 27.3406 41.5 31.476C41.5 35.6113 38.1353 38.976 34 38.976C29.8647 38.976 26.5 35.6113 26.5 31.476C26.5 27.3406 29.8647 23.976 34 23.976ZM33.0625 25.851V26.9666C32.3865 27.2123 31.8268 27.7019 31.4931 28.3391C31.2025 28.9001 31.1151 29.5444 31.2456 30.1625C31.361 30.7003 31.6285 31.1937 32.0162 31.5838C32.2722 31.8397 32.5769 32.0469 32.9125 32.1903C33.2481 32.3338 33.6156 32.4135 34 32.4135C34.1331 32.4135 34.2588 32.4388 34.3713 32.4847C34.4826 32.53 34.5838 32.5971 34.6688 32.6822C34.7538 32.7672 34.8209 32.8683 34.8663 32.9797C34.9122 33.0922 34.9375 33.2178 34.9375 33.351C34.9416 33.5356 34.8897 33.7172 34.7886 33.8718C34.6875 34.0264 34.542 34.1468 34.3713 34.2172C34.2588 34.2631 34.1331 34.2885 34 34.2885C33.8659 34.2885 33.7412 34.2631 33.6287 34.2172C33.5175 34.1717 33.4164 34.1045 33.3316 34.0194C33.2447 33.9313 33.1761 33.8269 33.13 33.7122C33.0838 33.5974 33.0608 33.4746 33.0625 33.351H31.1875C31.1876 34.0804 31.4765 34.7801 31.9909 35.2972C32.292 35.6043 32.6582 35.8397 33.0625 35.9863V37.101H34.9375V35.9853C35.4102 35.8159 35.8294 35.5239 36.1523 35.1393C36.4751 34.7547 36.69 34.2912 36.775 33.7963C36.8908 33.0932 36.7302 32.3727 36.3269 31.7853C36.1234 31.4858 35.8651 31.2275 35.5656 31.0241C35.262 30.8181 34.9214 30.6729 34.5625 30.5966C34.3775 30.558 34.189 30.5385 34 30.5385C33.8659 30.5385 33.7412 30.5131 33.6287 30.4672C33.5174 30.4219 33.4162 30.3548 33.3312 30.2697C33.2462 30.1847 33.1791 30.0836 33.1337 29.9722C33.0861 29.8543 33.0619 29.7282 33.0625 29.601C33.0625 29.4669 33.0878 29.3422 33.1337 29.2297C33.1791 29.1183 33.2462 29.0172 33.3312 28.9322C33.4162 28.8471 33.5174 28.78 33.6287 28.7347C33.7412 28.6888 33.8669 28.6635 34 28.6635C34.5344 28.6635 34.9375 29.0666 34.9375 29.601H36.8125C36.8127 29.3067 36.7659 29.0142 36.6737 28.7347C36.5357 28.3285 36.308 27.9586 36.0074 27.6525C35.7068 27.3464 35.3411 27.1119 34.9375 26.9666V25.851H33.0625ZM20.875 38.976V46.476H22.75V40.851H27.7938C26.9988 40.3194 26.2743 39.6894 25.6375 38.976H20.875ZM42.3625 38.976C41.7257 39.6894 41.0012 40.3194 40.2063 40.851H45.25V46.476H47.125V38.976H42.3625ZM24.625 42.726V44.601H43.375V42.726H24.625Z" fill="#171562"/>
<circle cx="33.9998" cy="34.2884" r="33.7498" stroke="#171562" stroke-width="0.5"/>
</svg>
