<svg width="68" height="69" viewBox="0 0 68 69" fill="none" xmlns="http://www.w3.org/2000/svg">
<path d="M46.5629 28.2759C48.054 31.3914 48.3342 34.9499 47.3492 38.2605C46.3641 41.5711 44.1841 44.3975 41.2322 46.1911C38.2804 47.9847 34.7674 48.6175 31.3753 47.9666C27.9832 47.3157 24.9539 45.4275 22.8756 42.6688C20.7973 39.91 19.8183 36.4773 20.1286 33.0373C20.4389 29.5972 22.0164 26.3952 24.5548 24.0528C27.0932 21.7105 30.4114 20.3949 33.8653 20.3615C37.3191 20.3281 40.6622 21.5793 43.2454 23.8721L46.5206 20.597C46.6746 20.4456 46.8823 20.3612 47.0983 20.3622C47.3143 20.3632 47.5211 20.4495 47.6738 20.6023C47.8264 20.7552 47.9125 20.9621 47.9133 21.1781C47.914 21.3941 47.8294 21.6017 47.6778 21.7556L34.5771 34.8562C34.5013 34.9332 34.4109 34.9944 34.3113 35.0363C34.2117 35.0783 34.1047 35.1 33.9967 35.1004C33.8886 35.1008 33.7815 35.0797 33.6816 35.0385C33.5817 34.9973 33.4909 34.9367 33.4145 34.8602C33.3381 34.7838 33.2776 34.6929 33.2365 34.593C33.1954 34.493 33.1745 34.3859 33.175 34.2778C33.1755 34.1697 33.1974 34.0628 33.2395 33.9632C33.2815 33.8637 33.3428 33.7734 33.4199 33.6976L37.4306 29.6855C36.3856 28.9042 35.1053 28.5027 33.8013 28.5476C32.4972 28.5924 31.2475 29.0809 30.2587 29.9322C29.2699 30.7836 28.6012 31.9468 28.363 33.2297C28.1249 34.5126 28.3316 35.8384 28.9491 36.9878C29.5665 38.1373 30.5576 39.0417 31.7587 39.5516C32.9598 40.0614 34.2989 40.1462 35.5547 39.7919C36.8105 39.4376 37.9078 38.6654 38.6652 37.6029C39.4227 36.5405 39.7949 35.2514 39.7205 33.9487C39.7082 33.7316 39.7827 33.5184 39.9275 33.3562C40.0724 33.1939 40.2757 33.0958 40.4929 33.0835C40.7101 33.0712 40.9232 33.1457 41.0855 33.2905C41.2477 33.4354 41.3458 33.6388 41.3581 33.8559C41.4563 35.541 40.9731 37.2088 39.9892 38.5803C39.0052 39.9519 37.5803 40.9441 35.9525 41.391C34.3248 41.8379 32.593 41.7124 31.0466 41.0356C29.5003 40.3588 28.2332 39.1716 27.4572 37.6726C26.6812 36.1735 26.4434 34.4535 26.7834 32.8002C27.1235 31.1468 28.0209 29.6603 29.3255 28.5893C30.6302 27.5182 32.2629 26.9275 33.9509 26.9159C35.6388 26.9043 37.2796 27.4725 38.5988 28.5256L42.0841 25.0389C39.7941 23.0421 36.8447 21.9659 33.8068 22.0188C30.769 22.0717 27.8588 23.2498 25.6397 25.3251C23.4206 27.4004 22.0504 30.2252 21.7944 33.2527C21.5384 36.2802 22.4148 39.295 24.2539 41.7135C26.093 44.1319 28.7641 45.782 31.7499 46.3442C34.7357 46.9064 37.824 46.3408 40.4167 44.7569C43.0095 43.173 44.9224 40.6834 45.785 37.7701C46.6476 34.8568 46.3987 31.7271 45.0863 28.9868C45.0396 28.8899 45.0125 28.7847 45.0065 28.6773C45.0004 28.5698 45.0156 28.4622 45.0512 28.3607C45.0867 28.2591 45.1419 28.1655 45.2136 28.0853C45.2853 28.0051 45.3721 27.9398 45.4691 27.8931C45.5661 27.8464 45.6712 27.8193 45.7787 27.8132C45.8861 27.8072 45.9937 27.8224 46.0953 27.8579C46.1968 27.8935 46.2904 27.9487 46.3706 28.0204C46.4509 28.0921 46.5162 28.1789 46.5629 28.2759Z" fill="#010766"/>
<circle cx="33.9998" cy="34.2884" r="33.7498" stroke="#010766" stroke-width="0.5"/>
</svg>
