<svg width="68" height="69" viewBox="0 0 68 69" fill="none" xmlns="http://www.w3.org/2000/svg">
<path d="M37.1449 19.1053C38.134 18.1741 39.4571 17.6597 40.8298 17.6725C42.2025 17.6853 43.5153 18.2244 44.4861 19.1738C45.4569 20.1233 46.0083 21.4074 46.0217 22.7503C46.0351 24.0932 45.5096 25.3876 44.5579 26.3555L40.81 30.0237C40.1118 29.8306 39.3937 29.7149 38.6691 29.6789L43.3121 25.1368C43.9429 24.494 44.2909 23.635 44.2815 22.7441C44.2722 21.8531 43.9061 21.0013 43.262 20.3714C42.6178 19.7415 41.7469 19.3837 40.8362 19.3748C39.9255 19.366 39.0475 19.7067 38.3906 20.324L21.8729 36.4826C21.532 36.816 21.2954 37.2376 21.191 37.6979L19.9452 43.1829L25.5116 41.9729C26.0085 41.8643 26.4631 41.6212 26.8226 41.2678L28.4878 39.6389C28.5265 40.3611 28.6464 41.061 28.8402 41.7333L28.0684 42.4883C27.4717 43.0715 26.7174 43.4763 25.894 43.6553L18.9761 45.1601C18.8314 45.1917 18.681 45.187 18.5387 45.1466C18.3964 45.1061 18.2668 45.0313 18.1619 44.9288C18.057 44.8264 17.9802 44.6998 17.9387 44.5606C17.8971 44.4215 17.8921 44.2743 17.9241 44.1327L19.4712 37.3238C19.6474 36.543 20.0492 35.8293 20.6254 35.2639L37.1449 19.1053ZM30.2375 39.1476C30.2375 41.2049 31.0729 43.1779 32.56 44.6326C34.047 46.0873 36.0639 46.9046 38.1669 46.9046C40.2699 46.9046 42.2867 46.0873 43.7738 44.6326C45.2608 43.1779 46.0962 41.2049 46.0962 39.1476C46.0962 37.0903 45.2608 35.1173 43.7738 33.6626C42.2867 32.2079 40.2699 31.3906 38.1669 31.3906C36.0639 31.3906 34.047 32.2079 32.56 33.6626C31.0729 35.1173 30.2375 37.0903 30.2375 39.1476ZM31.9996 39.1476C31.9996 38.0279 32.3181 36.9303 32.9195 35.9776C33.5209 35.0249 34.3814 34.2547 35.4048 33.7533C36.4282 33.2518 37.5741 33.0388 38.7141 33.1382C39.8542 33.2376 40.9435 33.6453 41.8602 34.3159L33.226 42.7623C32.4271 41.7195 31.9967 40.4508 31.9996 39.1476ZM38.1669 45.1808C36.7819 45.1808 35.5026 44.7326 34.4735 43.9793L43.1077 35.5328C43.7938 36.4297 44.211 37.4956 44.3128 38.6114C44.4146 39.7271 44.1968 40.8485 43.684 41.85C43.1711 42.8515 42.3833 43.6935 41.4089 44.2818C40.4345 44.8701 39.3119 45.1814 38.1669 45.1808Z" fill="#010766"/>
<circle cx="33.9998" cy="34.2884" r="33.7498" stroke="#010766" stroke-width="0.5"/>
</svg>
