<svg width="21" height="18" viewBox="0 0 21 18" fill="none" xmlns="http://www.w3.org/2000/svg">
<path d="M20.9722 2.39258C20.2022 2.74258 19.3722 2.97258 18.5122 3.08258C19.3922 2.55258 20.0722 1.71258 20.3922 0.702578C19.5622 1.20258 18.6422 1.55258 17.6722 1.75258C16.8822 0.892578 15.7722 0.392578 14.5122 0.392578C12.1622 0.392578 10.2422 2.31258 10.2422 4.68258C10.2422 5.02258 10.2822 5.35258 10.3522 5.66258C6.79225 5.48258 3.62225 3.77258 1.51225 1.18258C1.14225 1.81258 0.932246 2.55258 0.932246 3.33258C0.932246 4.82258 1.68225 6.14258 2.84225 6.89258C2.13225 6.89258 1.47225 6.69258 0.892246 6.39258V6.42258C0.892246 8.50258 2.37225 10.2426 4.33225 10.6326C3.70297 10.8048 3.04234 10.8287 2.40225 10.7026C2.67385 11.5551 3.20578 12.301 3.92326 12.8355C4.64074 13.37 5.50769 13.6663 6.40225 13.6826C4.88588 14.883 3.00624 15.5319 1.07225 15.5226C0.732246 15.5226 0.392246 15.5026 0.0522461 15.4626C1.95225 16.6826 4.21225 17.3926 6.63225 17.3926C14.5122 17.3926 18.8422 10.8526 18.8422 5.18258C18.8422 4.99258 18.8422 4.81258 18.8322 4.62258C19.6722 4.02258 20.3922 3.26258 20.9722 2.39258Z" fill="#DD131A"/>
</svg>
