<svg width="21" height="18" viewBox="0 0 21 18" fill="none" xmlns="http://www.w3.org/2000/svg">
<path d="M20.9444 2.29858C20.1744 2.64858 19.3444 2.87858 18.4844 2.98858C19.3644 2.45858 20.0444 1.61858 20.3644 0.608584C19.5344 1.10858 18.6144 1.45858 17.6444 1.65858C16.8544 0.798584 15.7444 0.298584 14.4844 0.298584C12.1344 0.298584 10.2144 2.21858 10.2144 4.58858C10.2144 4.92858 10.2544 5.25858 10.3244 5.56858C6.76441 5.38858 3.59441 3.67858 1.48441 1.08858C1.11441 1.71858 0.904414 2.45858 0.904414 3.23858C0.904414 4.72858 1.65441 6.04858 2.81441 6.79858C2.10441 6.79858 1.44441 6.59858 0.864414 6.29858V6.32858C0.864414 8.40858 2.34441 10.1486 4.30441 10.5386C3.67514 10.7108 3.01451 10.7348 2.37441 10.6086C2.64602 11.4611 3.17795 12.207 3.89543 12.7415C4.61291 13.276 5.47986 13.5723 6.37441 13.5886C4.85804 14.789 2.97841 15.4379 1.04441 15.4286C0.704414 15.4286 0.364414 15.4086 0.0244141 15.3686C1.92441 16.5886 4.18441 17.2986 6.60441 17.2986C14.4844 17.2986 18.8144 10.7586 18.8144 5.08858C18.8144 4.89858 18.8144 4.71858 18.8044 4.52858C19.6444 3.92858 20.3644 3.16858 20.9444 2.29858Z" fill="white"/>
</svg>
